<svg width="61" height="48" viewBox="0 0 61 48" fill="none" xmlns="http://www.w3.org/2000/svg">
<path d="M58.1859 7.38052C56.9845 6.12183 55.3253 5.37805 53.4372 5.37805H43.9398V5.26363C43.9398 3.83329 43.3677 2.46017 42.3951 1.54476C41.4224 0.572133 40.1065 0 38.6762 0H21.5122C20.0247 0 18.7088 0.572133 17.7361 1.54476C16.7635 2.51739 16.1914 3.83329 16.1914 5.26363V5.37805H6.75117C4.86313 5.37805 3.20395 6.12183 2.00247 7.38052C0.800987 8.582 0 10.2984 0 12.1292V40.6215C0 42.5095 0.743773 44.1687 2.00247 45.3702C3.20395 46.5716 4.92035 47.3726 6.75117 47.3726H53.4372C55.3253 47.3726 56.9845 46.6289 58.1859 45.3702C59.3874 44.1687 60.1884 42.4523 60.1884 40.6215V12.1292C60.1884 10.2412 59.4446 8.582 58.1859 7.38052ZM57.2133 40.6215H57.1561C57.1561 41.6513 56.7556 42.5667 56.0691 43.2533C55.3825 43.9398 54.4671 44.3403 53.4372 44.3403H6.75117C5.72133 44.3403 4.80592 43.9398 4.11936 43.2533C3.4328 42.5667 3.03231 41.6513 3.03231 40.6215V12.1292C3.03231 11.0994 3.4328 10.184 4.11936 9.49741C4.80592 8.81085 5.72133 8.41036 6.75117 8.41036H17.7933C18.6515 8.41036 19.3381 7.7238 19.3381 6.8656V5.20641C19.3381 4.57707 19.567 4.00493 19.9674 3.60444C20.3679 3.20395 20.9401 2.97509 21.5694 2.97509H38.6762C39.3055 2.97509 39.8777 3.20395 40.2782 3.60444C40.6787 4.00493 40.9075 4.57707 40.9075 5.20641V6.8656C40.9075 7.7238 41.5941 8.41036 42.4523 8.41036H53.4945C54.5243 8.41036 55.4397 8.81085 56.1263 9.49741C56.8128 10.184 57.2133 11.0994 57.2133 12.1292V40.6215Z" fill="#2B2F30"/>
<path d="M30.094 12.3008C26.2035 12.3008 22.6563 13.9028 20.1389 16.4201C17.5643 18.9947 16.0195 22.4848 16.0195 26.3753C16.0195 30.2658 17.6215 33.813 20.1389 36.3304C22.7135 38.905 26.2035 40.4497 30.094 40.4497C33.9845 40.4497 37.5317 38.8478 40.0491 36.3304C42.6237 33.7558 44.1685 30.2658 44.1685 26.3753C44.1685 22.4848 42.5665 18.9375 40.0491 16.4201C37.5317 13.9028 33.9845 12.3008 30.094 12.3008ZM37.875 34.2135C35.8726 36.1587 33.1263 37.4174 30.094 37.4174C27.0617 37.4174 24.3155 36.1587 22.313 34.2135C20.3105 32.211 19.1091 29.4648 19.1091 26.4325C19.1091 23.4002 20.3677 20.6539 22.313 18.6515C24.3155 16.649 27.0617 15.4475 30.094 15.4475C33.1263 15.4475 35.8726 16.7062 37.875 18.6515C39.8775 20.6539 41.079 23.4002 41.079 26.4325C41.1362 29.4648 39.8775 32.211 37.875 34.2135Z" fill="#2B2F30"/>
<path d="M50.4617 17.8506C52.01 17.8506 53.2651 16.5954 53.2651 15.0471C53.2651 13.4988 52.01 12.2437 50.4617 12.2437C48.9133 12.2437 47.6582 13.4988 47.6582 15.0471C47.6582 16.5954 48.9133 17.8506 50.4617 17.8506Z" fill="#2B2F30"/>
</svg>
