<svg width="275" height="101" viewBox="0 0 275 101" fill="none" xmlns="http://www.w3.org/2000/svg">
<path d="M140.91 7.8C141.378 7.8 141.759 7.93867 142.054 8.216C142.349 8.49333 142.496 8.85733 142.496 9.308C142.496 9.75867 142.349 10.1227 142.054 10.4C141.759 10.66 141.378 10.79 140.91 10.79H136.828V24.414C136.828 24.8647 136.663 25.246 136.334 25.558C136.005 25.8527 135.597 26 135.112 26C134.627 26 134.228 25.8527 133.916 25.558C133.604 25.246 133.448 24.8647 133.448 24.414V10.79H129.366C128.898 10.79 128.517 10.6513 128.222 10.374C127.927 10.0967 127.78 9.73267 127.78 9.282C127.78 8.84867 127.927 8.49333 128.222 8.216C128.534 7.93867 128.915 7.8 129.366 7.8H140.91ZM152.271 11.83C153.987 11.83 155.175 12.3587 155.833 13.416C156.492 14.456 156.821 15.9033 156.821 17.758V24.414C156.821 24.8647 156.674 25.246 156.379 25.558C156.085 25.8527 155.712 26 155.261 26C154.811 26 154.438 25.8527 154.143 25.558C153.849 25.246 153.701 24.8647 153.701 24.414V17.758C153.701 16.8047 153.511 16.0593 153.129 15.522C152.765 14.9673 152.115 14.69 151.179 14.69C150.209 14.69 149.446 14.9847 148.891 15.574C148.354 16.146 148.085 16.874 148.085 17.758V24.414C148.085 24.8647 147.938 25.246 147.643 25.558C147.349 25.8527 146.976 26 146.525 26C146.075 26 145.702 25.8527 145.407 25.558C145.113 25.246 144.965 24.8647 144.965 24.414V8.346C144.965 7.89533 145.113 7.52267 145.407 7.228C145.702 6.916 146.075 6.76 146.525 6.76C146.976 6.76 147.349 6.916 147.643 7.228C147.938 7.52267 148.085 7.89533 148.085 8.346V14.092C148.553 13.468 149.143 12.9393 149.853 12.506C150.581 12.0553 151.387 11.83 152.271 11.83ZM172.68 18.72C172.662 19.136 172.498 19.474 172.186 19.734C171.874 19.994 171.51 20.124 171.094 20.124H162.514C162.722 21.1467 163.198 21.9527 163.944 22.542C164.689 23.114 165.53 23.4 166.466 23.4C167.176 23.4 167.731 23.3393 168.13 23.218C168.528 23.0793 168.84 22.9407 169.066 22.802C169.308 22.646 169.473 22.542 169.56 22.49C169.872 22.334 170.166 22.256 170.444 22.256C170.808 22.256 171.12 22.386 171.38 22.646C171.64 22.906 171.77 23.2093 171.77 23.556C171.77 24.024 171.527 24.4487 171.042 24.83C170.556 25.2287 169.906 25.5667 169.092 25.844C168.277 26.1213 167.454 26.26 166.622 26.26C165.166 26.26 163.892 25.9567 162.8 25.35C161.725 24.7433 160.893 23.9113 160.304 22.854C159.714 21.7793 159.42 20.5747 159.42 19.24C159.42 17.7493 159.732 16.4407 160.356 15.314C160.98 14.1873 161.803 13.3293 162.826 12.74C163.848 12.1333 164.94 11.83 166.102 11.83C167.246 11.83 168.32 12.142 169.326 12.766C170.348 13.39 171.163 14.2307 171.77 15.288C172.376 16.3453 172.68 17.4893 172.68 18.72ZM166.102 14.69C164.091 14.69 162.904 15.6347 162.54 17.524H169.352V17.342C169.282 16.614 168.927 15.99 168.286 15.47C167.644 14.95 166.916 14.69 166.102 14.69ZM144.732 40.774C145.165 40.774 145.538 40.93 145.85 41.242C146.179 41.5367 146.344 41.9093 146.344 42.36V57.414C146.344 57.8647 146.197 58.246 145.902 58.558C145.607 58.8527 145.217 59 144.732 59C144.247 59 143.848 58.8527 143.536 58.558C143.241 58.2633 143.094 57.882 143.094 57.414V46.936L138.804 53.488C138.631 53.696 138.431 53.8693 138.206 54.008C137.981 54.1293 137.747 54.1813 137.504 54.164C137.279 54.1813 137.053 54.1293 136.828 54.008C136.603 53.8693 136.403 53.696 136.23 53.488L131.94 46.702V57.414C131.94 57.882 131.801 58.2633 131.524 58.558C131.247 58.8527 130.883 59 130.432 59C129.999 59 129.643 58.8527 129.366 58.558C129.089 58.246 128.95 57.8647 128.95 57.414V42.36C128.95 41.9267 129.106 41.554 129.418 41.242C129.747 40.93 130.137 40.774 130.588 40.774C130.848 40.774 131.108 40.8433 131.368 40.982C131.628 41.1033 131.827 41.268 131.966 41.476L137.634 50.186L143.458 41.476C143.597 41.268 143.779 41.1033 144.004 40.982C144.247 40.8433 144.489 40.774 144.732 40.774ZM163.357 52.058C163.357 53.4447 163.045 54.6927 162.421 55.802C161.797 56.894 160.939 57.7433 159.847 58.35C158.772 58.9567 157.585 59.26 156.285 59.26C154.967 59.26 153.771 58.9567 152.697 58.35C151.622 57.7433 150.773 56.894 150.149 55.802C149.525 54.6927 149.213 53.4447 149.213 52.058C149.213 50.6713 149.525 49.432 150.149 48.34C150.773 47.2307 151.622 46.3727 152.697 45.766C153.771 45.142 154.967 44.83 156.285 44.83C157.585 44.83 158.772 45.142 159.847 45.766C160.939 46.3727 161.797 47.2307 162.421 48.34C163.045 49.432 163.357 50.6713 163.357 52.058ZM160.237 52.058C160.237 51.2087 160.055 50.4547 159.691 49.796C159.344 49.12 158.867 48.6 158.261 48.236C157.671 47.872 157.013 47.69 156.285 47.69C155.557 47.69 154.889 47.872 154.283 48.236C153.693 48.6 153.217 49.12 152.853 49.796C152.506 50.4547 152.333 51.2087 152.333 52.058C152.333 52.9073 152.506 53.6613 152.853 54.32C153.217 54.9787 153.693 55.49 154.283 55.854C154.889 56.218 155.557 56.4 156.285 56.4C157.013 56.4 157.671 56.218 158.261 55.854C158.867 55.49 159.344 54.9787 159.691 54.32C160.055 53.6613 160.237 52.9073 160.237 52.058ZM177.221 39.76C177.672 39.76 178.045 39.9073 178.339 40.202C178.634 40.4967 178.781 40.878 178.781 41.346V57.414C178.781 57.8647 178.634 58.246 178.339 58.558C178.045 58.8527 177.672 59 177.221 59C176.771 59 176.398 58.8527 176.103 58.558C175.826 58.2633 175.679 57.8907 175.661 57.44C175.228 57.9427 174.639 58.376 173.893 58.74C173.165 59.0867 172.394 59.26 171.579 59.26C170.383 59.26 169.3 58.9567 168.329 58.35C167.359 57.726 166.587 56.868 166.015 55.776C165.461 54.684 165.183 53.4447 165.183 52.058C165.183 50.6713 165.461 49.432 166.015 48.34C166.57 47.2307 167.324 46.3727 168.277 45.766C169.248 45.142 170.314 44.83 171.475 44.83C172.307 44.83 173.087 44.986 173.815 45.298C174.543 45.5927 175.159 45.974 175.661 46.442V41.346C175.661 40.8953 175.809 40.5227 176.103 40.228C176.398 39.916 176.771 39.76 177.221 39.76ZM171.969 56.4C173.096 56.4 174.015 55.9927 174.725 55.178C175.436 54.346 175.791 53.306 175.791 52.058C175.791 50.81 175.436 49.77 174.725 48.938C174.015 48.106 173.096 47.69 171.969 47.69C170.86 47.69 169.95 48.106 169.239 48.938C168.529 49.77 168.173 50.81 168.173 52.058C168.173 53.306 168.52 54.346 169.213 55.178C169.924 55.9927 170.843 56.4 171.969 56.4ZM194.643 51.72C194.625 52.136 194.461 52.474 194.149 52.734C193.837 52.994 193.473 53.124 193.057 53.124H184.477C184.685 54.1467 185.161 54.9527 185.907 55.542C186.652 56.114 187.493 56.4 188.429 56.4C189.139 56.4 189.694 56.3393 190.093 56.218C190.491 56.0793 190.803 55.9407 191.029 55.802C191.271 55.646 191.436 55.542 191.523 55.49C191.835 55.334 192.129 55.256 192.407 55.256C192.771 55.256 193.083 55.386 193.343 55.646C193.603 55.906 193.733 56.2093 193.733 56.556C193.733 57.024 193.49 57.4487 193.005 57.83C192.519 58.2287 191.869 58.5667 191.055 58.844C190.24 59.1213 189.417 59.26 188.585 59.26C187.129 59.26 185.855 58.9567 184.763 58.35C183.688 57.7433 182.856 56.9113 182.267 55.854C181.677 54.7793 181.383 53.5747 181.383 52.24C181.383 50.7493 181.695 49.4407 182.319 48.314C182.943 47.1873 183.766 46.3293 184.789 45.74C185.811 45.1333 186.903 44.83 188.065 44.83C189.209 44.83 190.283 45.142 191.289 45.766C192.311 46.39 193.126 47.2307 193.733 48.288C194.339 49.3453 194.643 50.4893 194.643 51.72ZM188.065 47.69C186.054 47.69 184.867 48.6347 184.503 50.524H191.315V50.342C191.245 49.614 190.89 48.99 190.249 48.47C189.607 47.95 188.879 47.69 188.065 47.69ZM204.473 44.83C204.993 44.83 205.426 44.9773 205.773 45.272C206.137 45.5667 206.319 45.9133 206.319 46.312C206.319 46.8493 206.18 47.2567 205.903 47.534C205.625 47.794 205.296 47.924 204.915 47.924C204.655 47.924 204.36 47.8633 204.031 47.742C203.979 47.7247 203.857 47.69 203.667 47.638C203.493 47.586 203.303 47.56 203.095 47.56C202.644 47.56 202.211 47.6987 201.795 47.976C201.379 48.2533 201.032 48.678 200.755 49.25C200.495 49.8047 200.365 50.472 200.365 51.252V57.414C200.365 57.8647 200.217 58.246 199.923 58.558C199.628 58.8527 199.255 59 198.805 59C198.354 59 197.981 58.8527 197.687 58.558C197.392 58.246 197.245 57.8647 197.245 57.414V46.676C197.245 46.2253 197.392 45.8527 197.687 45.558C197.981 45.246 198.354 45.09 198.805 45.09C199.255 45.09 199.628 45.246 199.923 45.558C200.217 45.8527 200.365 46.2253 200.365 46.676V47.014C200.763 46.3033 201.335 45.766 202.081 45.402C202.826 45.0207 203.623 44.83 204.473 44.83ZM215.954 44.83C217.722 44.83 218.944 45.3587 219.62 46.416C220.296 47.456 220.634 48.9033 220.634 50.758V57.414C220.634 57.8647 220.487 58.246 220.192 58.558C219.897 58.8527 219.525 59 219.074 59C218.623 59 218.251 58.8527 217.956 58.558C217.661 58.246 217.514 57.8647 217.514 57.414V50.758C217.514 49.8047 217.315 49.0593 216.916 48.522C216.517 47.9673 215.833 47.69 214.862 47.69C213.857 47.69 213.068 47.9847 212.496 48.574C211.924 49.146 211.638 49.874 211.638 50.758V57.414C211.638 57.8647 211.491 58.246 211.196 58.558C210.901 58.8527 210.529 59 210.078 59C209.627 59 209.255 58.8527 208.96 58.558C208.665 58.246 208.518 57.8647 208.518 57.414V46.676C208.518 46.2253 208.665 45.8527 208.96 45.558C209.255 45.246 209.627 45.09 210.078 45.09C210.529 45.09 210.901 45.246 211.196 45.558C211.491 45.8527 211.638 46.2253 211.638 46.676V47.118C212.106 46.494 212.713 45.9567 213.458 45.506C214.221 45.0553 215.053 44.83 215.954 44.83ZM143.224 89.972C143.311 90.1973 143.354 90.4053 143.354 90.596C143.354 91.0467 143.207 91.4193 142.912 91.714C142.617 91.9913 142.279 92.13 141.898 92.13C141.586 92.13 141.3 92.0347 141.04 91.844C140.797 91.6533 140.607 91.3933 140.468 91.064L139.116 87.918H131.368L130.016 91.09C129.895 91.4193 129.704 91.6793 129.444 91.87C129.201 92.0433 128.933 92.13 128.638 92.13C128.187 92.13 127.841 92.0087 127.598 91.766C127.373 91.5233 127.26 91.194 127.26 90.778C127.26 90.622 127.286 90.4573 127.338 90.284L133.812 74.736C133.951 74.3893 134.159 74.1207 134.436 73.93C134.713 73.7393 135.025 73.6613 135.372 73.696C135.684 73.696 135.97 73.7913 136.23 73.982C136.507 74.1553 136.707 74.4067 136.828 74.736L143.224 89.972ZM137.842 84.928L135.216 78.844L132.642 84.928H137.842ZM152.497 77.83C153.693 77.83 154.777 78.142 155.747 78.766C156.718 79.3727 157.481 80.222 158.035 81.314C158.607 82.406 158.893 83.6453 158.893 85.032C158.893 86.4187 158.616 87.6667 158.061 88.776C157.507 89.868 156.744 90.726 155.773 91.35C154.82 91.9567 153.763 92.26 152.601 92.26C151.769 92.26 150.981 92.0953 150.235 91.766C149.507 91.4193 148.901 91.0033 148.415 90.518V95.614C148.415 96.0647 148.268 96.4373 147.973 96.732C147.679 97.044 147.306 97.2 146.855 97.2C146.405 97.2 146.032 97.0527 145.737 96.758C145.443 96.4633 145.295 96.082 145.295 95.614V79.676C145.295 79.2253 145.443 78.8527 145.737 78.558C146.032 78.246 146.405 78.09 146.855 78.09C147.306 78.09 147.679 78.246 147.973 78.558C148.268 78.8527 148.415 79.2253 148.415 79.676V79.78C148.831 79.26 149.412 78.8093 150.157 78.428C150.903 78.0293 151.683 77.83 152.497 77.83ZM152.107 89.4C153.217 89.4 154.127 88.984 154.837 88.152C155.548 87.32 155.903 86.28 155.903 85.032C155.903 83.784 155.548 82.7527 154.837 81.938C154.144 81.106 153.234 80.69 152.107 80.69C150.981 80.69 150.062 81.106 149.351 81.938C148.641 82.7527 148.285 83.784 148.285 85.032C148.285 86.28 148.641 87.32 149.351 88.152C150.062 88.984 150.981 89.4 152.107 89.4ZM172.753 77.83C173.203 77.83 173.576 77.9773 173.871 78.272C174.165 78.5667 174.313 78.948 174.313 79.416V90.414C174.313 90.8647 174.165 91.246 173.871 91.558C173.576 91.8527 173.203 92 172.753 92C172.302 92 171.929 91.8527 171.635 91.558C171.357 91.2633 171.21 90.8907 171.193 90.44C170.759 90.9427 170.17 91.376 169.425 91.74C168.697 92.0867 167.925 92.26 167.111 92.26C165.915 92.26 164.831 91.9567 163.861 91.35C162.89 90.726 162.119 89.868 161.547 88.776C160.992 87.684 160.715 86.4447 160.715 85.058C160.715 83.6713 160.992 82.432 161.547 81.34C162.101 80.2307 162.855 79.3727 163.809 78.766C164.779 78.142 165.845 77.83 167.007 77.83C167.839 77.83 168.619 77.986 169.347 78.298C170.075 78.5927 170.69 78.974 171.193 79.442V79.416C171.193 78.9653 171.34 78.5927 171.635 78.298C171.929 77.986 172.302 77.83 172.753 77.83ZM167.501 89.4C168.627 89.4 169.546 88.9927 170.257 88.178C170.967 87.346 171.323 86.306 171.323 85.058C171.323 83.81 170.967 82.77 170.257 81.938C169.546 81.106 168.627 80.69 167.501 80.69C166.391 80.69 165.481 81.106 164.771 81.938C164.06 82.77 163.705 83.81 163.705 85.058C163.705 86.306 164.051 87.346 164.745 88.178C165.455 88.9927 166.374 89.4 167.501 89.4ZM184.922 77.83C185.442 77.83 185.875 77.9773 186.222 78.272C186.586 78.5667 186.768 78.9133 186.768 79.312C186.768 79.8493 186.629 80.2567 186.352 80.534C186.075 80.794 185.745 80.924 185.364 80.924C185.104 80.924 184.809 80.8633 184.48 80.742C184.428 80.7247 184.307 80.69 184.116 80.638C183.943 80.586 183.752 80.56 183.544 80.56C183.093 80.56 182.66 80.6987 182.244 80.976C181.828 81.2533 181.481 81.678 181.204 82.25C180.944 82.8047 180.814 83.472 180.814 84.252V90.414C180.814 90.8647 180.667 91.246 180.372 91.558C180.077 91.8527 179.705 92 179.254 92C178.803 92 178.431 91.8527 178.136 91.558C177.841 91.246 177.694 90.8647 177.694 90.414V79.676C177.694 79.2253 177.841 78.8527 178.136 78.558C178.431 78.246 178.803 78.09 179.254 78.09C179.705 78.09 180.077 78.246 180.372 78.558C180.667 78.8527 180.814 79.2253 180.814 79.676V80.014C181.213 79.3033 181.785 78.766 182.53 78.402C183.275 78.0207 184.073 77.83 184.922 77.83ZM195.675 89.062C195.918 89.062 196.135 89.1833 196.325 89.426C196.533 89.6513 196.637 89.9547 196.637 90.336C196.637 90.804 196.377 91.2027 195.857 91.532C195.355 91.844 194.783 92 194.141 92C193.067 92 192.157 91.7747 191.411 91.324C190.683 90.856 190.319 89.8767 190.319 88.386V81.21H189.123C188.707 81.21 188.361 81.0713 188.083 80.794C187.806 80.5167 187.667 80.17 187.667 79.754C187.667 79.3553 187.806 79.026 188.083 78.766C188.361 78.4887 188.707 78.35 189.123 78.35H190.319V76.686C190.319 76.2353 190.467 75.8627 190.761 75.568C191.073 75.256 191.455 75.1 191.905 75.1C192.339 75.1 192.703 75.256 192.997 75.568C193.292 75.8627 193.439 76.2353 193.439 76.686V78.35H195.285C195.701 78.35 196.048 78.4887 196.325 78.766C196.603 79.0433 196.741 79.39 196.741 79.806C196.741 80.2047 196.603 80.5427 196.325 80.82C196.048 81.08 195.701 81.21 195.285 81.21H193.439V88.256C193.439 88.62 193.535 88.8887 193.725 89.062C193.916 89.218 194.176 89.296 194.505 89.296C194.644 89.296 194.835 89.2613 195.077 89.192C195.285 89.1053 195.485 89.062 195.675 89.062ZM215.648 77.83C217.364 77.83 218.551 78.3587 219.21 79.416C219.869 80.456 220.198 81.9033 220.198 83.758V90.414C220.198 90.8647 220.051 91.246 219.756 91.558C219.461 91.8527 219.089 92 218.638 92C218.187 92 217.815 91.8527 217.52 91.558C217.225 91.246 217.078 90.8647 217.078 90.414V83.758C217.078 82.8047 216.887 82.0593 216.506 81.522C216.142 80.9673 215.492 80.69 214.556 80.69C213.585 80.69 212.823 80.9847 212.268 81.574C211.731 82.146 211.462 82.874 211.462 83.758V90.414C211.462 90.8647 211.315 91.246 211.02 91.558C210.725 91.8527 210.353 92 209.902 92C209.451 92 209.079 91.8527 208.784 91.558C208.489 91.246 208.342 90.8647 208.342 90.414V83.758C208.342 82.8047 208.151 82.0593 207.77 81.522C207.406 80.9673 206.756 80.69 205.82 80.69C204.849 80.69 204.087 80.9847 203.532 81.574C202.995 82.146 202.726 82.874 202.726 83.758V90.414C202.726 90.8647 202.579 91.246 202.284 91.558C201.989 91.8527 201.617 92 201.166 92C200.715 92 200.343 91.8527 200.048 91.558C199.753 91.246 199.606 90.8647 199.606 90.414V79.676C199.606 79.2253 199.753 78.8527 200.048 78.558C200.343 78.246 200.715 78.09 201.166 78.09C201.617 78.09 201.989 78.246 202.284 78.558C202.579 78.8527 202.726 79.2253 202.726 79.676V80.092C203.194 79.468 203.783 78.9393 204.494 78.506C205.222 78.0553 206.028 77.83 206.912 77.83C209.096 77.83 210.491 78.7833 211.098 80.69C211.497 79.962 212.095 79.3033 212.892 78.714C213.707 78.1247 214.625 77.83 215.648 77.83ZM236.055 84.72C236.037 85.136 235.873 85.474 235.561 85.734C235.249 85.994 234.885 86.124 234.469 86.124H225.889C226.097 87.1467 226.573 87.9527 227.319 88.542C228.064 89.114 228.905 89.4 229.841 89.4C230.551 89.4 231.106 89.3393 231.505 89.218C231.903 89.0793 232.215 88.9407 232.441 88.802C232.683 88.646 232.848 88.542 232.935 88.49C233.247 88.334 233.541 88.256 233.819 88.256C234.183 88.256 234.495 88.386 234.755 88.646C235.015 88.906 235.145 89.2093 235.145 89.556C235.145 90.024 234.902 90.4487 234.417 90.83C233.931 91.2287 233.281 91.5667 232.467 91.844C231.652 92.1213 230.829 92.26 229.997 92.26C228.541 92.26 227.267 91.9567 226.175 91.35C225.1 90.7433 224.268 89.9113 223.679 88.854C223.089 87.7793 222.795 86.5747 222.795 85.24C222.795 83.7493 223.107 82.4407 223.731 81.314C224.355 80.1873 225.178 79.3293 226.201 78.74C227.223 78.1333 228.315 77.83 229.477 77.83C230.621 77.83 231.695 78.142 232.701 78.766C233.723 79.39 234.538 80.2307 235.145 81.288C235.751 82.3453 236.055 83.4893 236.055 84.72ZM229.477 80.69C227.466 80.69 226.279 81.6347 225.915 83.524H232.727V83.342C232.657 82.614 232.302 81.99 231.661 81.47C231.019 80.95 230.291 80.69 229.477 80.69ZM246.093 77.83C247.861 77.83 249.083 78.3587 249.759 79.416C250.435 80.456 250.773 81.9033 250.773 83.758V90.414C250.773 90.8647 250.625 91.246 250.331 91.558C250.036 91.8527 249.663 92 249.213 92C248.762 92 248.389 91.8527 248.095 91.558C247.8 91.246 247.653 90.8647 247.653 90.414V83.758C247.653 82.8047 247.453 82.0593 247.055 81.522C246.656 80.9673 245.971 80.69 245.001 80.69C243.995 80.69 243.207 80.9847 242.635 81.574C242.063 82.146 241.777 82.874 241.777 83.758V90.414C241.777 90.8647 241.629 91.246 241.335 91.558C241.04 91.8527 240.667 92 240.217 92C239.766 92 239.393 91.8527 239.099 91.558C238.804 91.246 238.657 90.8647 238.657 90.414V79.676C238.657 79.2253 238.804 78.8527 239.099 78.558C239.393 78.246 239.766 78.09 240.217 78.09C240.667 78.09 241.04 78.246 241.335 78.558C241.629 78.8527 241.777 79.2253 241.777 79.676V80.118C242.245 79.494 242.851 78.9567 243.597 78.506C244.359 78.0553 245.191 77.83 246.093 77.83ZM260.853 89.062C261.096 89.062 261.312 89.1833 261.503 89.426C261.711 89.6513 261.815 89.9547 261.815 90.336C261.815 90.804 261.555 91.2027 261.035 91.532C260.532 91.844 259.96 92 259.319 92C258.244 92 257.334 91.7747 256.589 91.324C255.861 90.856 255.497 89.8767 255.497 88.386V81.21H254.301C253.885 81.21 253.538 81.0713 253.261 80.794C252.984 80.5167 252.845 80.17 252.845 79.754C252.845 79.3553 252.984 79.026 253.261 78.766C253.538 78.4887 253.885 78.35 254.301 78.35H255.497V76.686C255.497 76.2353 255.644 75.8627 255.939 75.568C256.251 75.256 256.632 75.1 257.083 75.1C257.516 75.1 257.88 75.256 258.175 75.568C258.47 75.8627 258.617 76.2353 258.617 76.686V78.35H260.463C260.879 78.35 261.226 78.4887 261.503 78.766C261.78 79.0433 261.919 79.39 261.919 79.806C261.919 80.2047 261.78 80.5427 261.503 80.82C261.226 81.08 260.879 81.21 260.463 81.21H258.617V88.256C258.617 88.62 258.712 88.8887 258.903 89.062C259.094 89.218 259.354 89.296 259.683 89.296C259.822 89.296 260.012 89.2613 260.255 89.192C260.463 89.1053 260.662 89.062 260.853 89.062Z" fill="#2B2F30"/>
<rect x="1" y="1" width="98" height="98.2193" stroke="#2B2F30" stroke-width="2"/>
<path d="M50.2197 0L50.2197 20.3947" stroke="#2B2F30" stroke-width="2"/>
<path d="M52.3033 22.917C52.6323 21.2723 51.382 20.1758 50.1103 20.1758C48.8386 20.1758 47.5884 21.4916 48.027 23.0267" stroke="#2B2F30" stroke-width="2"/>
<path d="M60.3063 24.5608C59.7581 23.245 53.3984 22.7699 49.5607 22.9161C44.6265 23.104 42.8721 23.1354 40.1309 24.2319C39.6037 24.4427 39.5826 31.5005 40.1309 31.359C48.2888 29.2539 56.9803 32.5652 60.3063 34.6485C60.3063 31.7977 60.9609 26.1321 60.3063 24.5608Z" stroke="#2B2F30" stroke-width="2"/>
<path d="M40.0225 31.1402C40.0225 31.7981 41.7549 33.2235 42.5444 33.2235M42.3251 30.9209C42.2154 33.4428 42.3256 38.4713 42.5444 38.4867C48.7944 38.9253 55.7023 37.8288 57.7856 35.5262" stroke="#2B2F30" stroke-width="2"/>
<path d="M42.5439 38.2678C43.2018 35.9651 50.1097 34.3204 57.5659 35.4169V33.1143M60.5264 35.5265C60.0878 36.0748 58.2238 36.2941 57.2369 36.0748" stroke="#2B2F30" stroke-width="2"/>
<path d="M14.2539 74.8898C20.0653 82.6749 34.3197 81.3591 42.6531 81.2494C59.3197 79.9337 66.7759 67.5433 58.9908 63.9249C48.5825 59.0872 42.6531 73.7005 40.6794 72.2582C37.8285 70.1749 33.0039 51.4249 29.9337 49.1223C27.7619 47.4934 11.5127 44.9556 11.5127 49.6705C11.5127 55.2626 11.7849 71.5822 14.2539 74.8898Z" stroke="#2B2F30" stroke-width="2"/>
<path d="M13.4873 73.1357C14.4376 69.8462 17.8075 64.6269 23.6847 70.0655C24.606 70.918 25.5204 71.743 26.4259 72.5323M26.4259 72.5323C32.7413 78.0374 38.5997 81.5784 43.4215 81.14C50.6584 80.4821 52.632 73.9032 49.5619 72.9164C44.801 71.3861 31.9084 73.355 26.4259 72.5323Z" stroke="#2B2F30" stroke-width="2"/>
<path d="M19.7358 79.2759L13.7051 99.232H16.3367L23.4638 80.482M31.7972 81.4689L29.7138 99.1224H32.5647L35.8542 81.4689M46.1612 80.9206C46.2489 81.3592 50.8396 93.0917 53.3981 99.1224H56.7972L49.9989 80.1531" stroke="#2B2F30" stroke-width="2"/>
<path d="M67.4338 84.7587H64.5829V74.4517H87.9382V84.7587H84.7584M67.4338 84.7587L63.0479 99.0131M67.4338 84.7587H71.6005M71.6005 84.7587L66.0084 99.342M71.6005 84.7587H80.9207M80.9207 84.7587L86.4031 99.342M80.9207 84.7587H84.7584M84.7584 84.7587L89.4733 98.7938" stroke="#2B2F30" stroke-width="2"/>
<circle cx="76.3154" cy="78.0702" r="1" stroke="#2B2F30" stroke-width="1.07018"/>
</svg>
