<svg width="65" height="50" viewBox="0 0 65 50" fill="none" xmlns="http://www.w3.org/2000/svg">
<path d="M2.15922 13.4951L28.0699 0.837629C30.3036 -0.27921 34.1008 -0.27921 36.3345 0.837629L62.8408 13.4951C64.7022 14.3886 65 15.6544 65 16.3245C65 16.9946 64.7022 18.1859 62.8408 19.1538L60.6816 20.1962V32.1091C62.0218 32.6303 62.9897 33.9705 62.9897 35.4596C62.9897 36.9487 62.0218 38.2889 60.756 38.8101L64.1065 49.4573H54.7251L58.0756 38.8101C56.7354 38.2889 55.8419 36.9487 55.8419 35.4596C55.8419 33.896 56.8099 32.6303 58.1501 32.1091V21.4619L54.2039 23.3978V38.8846C54.2039 39.108 54.1294 39.3313 53.9805 39.5547C53.6082 40.0014 46.6839 49.4573 32.5372 49.4573C18.3906 49.4573 11.4662 39.927 11.1684 39.5547C11.0195 39.3313 10.945 39.108 10.945 38.8846V23.4722L2.15922 19.1538C0.297825 18.2603 1.19209e-07 16.9946 1.19209e-07 16.3245C0.074456 15.6544 0.297825 14.3886 2.15922 13.4951ZM13.3276 38.5123C14.5189 40.0014 20.9221 47.1492 32.5372 47.1492C44.1524 47.1492 50.5556 40.0014 51.7469 38.5123V24.4401L36.3345 31.8113C35.2176 32.3325 33.7285 32.6303 32.2394 32.6303C30.6758 32.6303 29.1867 32.3325 28.0699 31.7368L13.3276 24.5146V38.5123ZM3.20161 17.069L12.1363 21.4619C12.5086 21.4619 12.8064 21.6108 12.9553 21.9086L29.1123 29.7265C30.6758 30.5455 33.7285 30.5455 35.3666 29.7265L45.3064 24.9613L55.2463 20.1962L32.3883 17.5157C31.7182 17.4413 31.2715 16.8456 31.3459 16.25C31.4204 15.5799 32.016 15.1332 32.6117 15.2076L59.118 18.3348L61.7984 17.069C62.4685 16.7712 62.6174 16.3989 62.6174 16.3989C62.6174 16.3245 62.4685 16.0266 61.7984 15.7288L35.2921 2.99685C34.4731 2.62457 33.3562 2.4012 32.2394 2.4012C31.0481 2.4012 29.8568 2.62457 29.1123 2.99685L3.20161 15.6544C2.5315 15.9522 2.38259 16.25 2.38259 16.3989C2.38259 16.3989 2.60596 16.7712 3.20161 17.069Z" fill="#2B2F30"/>
</svg>
