<svg width="504" height="529" viewBox="0 0 504 529" fill="none" xmlns="http://www.w3.org/2000/svg">
<path d="M444.592 383.385C461.152 367.601 463.256 347.363 462.99 326.315C449.161 364.762 417.73 382.237 381.784 394.891C404.277 374.889 408.393 349.15 406.438 321.432L405.392 321.219C405.316 322.866 405.235 324.513 405.152 326.161C404.409 342.515 401.68 358.41 393.728 372.989C385.24 388.546 372.793 399.223 355.185 403.226C353.307 403.651 351.337 403.625 349.067 403.212C358.426 394.727 364.315 384.769 365.726 372.255C358.828 387.04 347.415 396.363 332.476 401.5C332.112 401.211 331.747 400.925 331.382 400.64C331.903 399.439 332.584 398.262 332.921 397.002C334.306 391.678 335.974 386.38 336.746 380.96C337.162 378.035 335.633 375.115 332.334 373.873C328.33 372.37 325.841 373.657 324.795 377.776C322.814 385.645 323.504 393.515 325.065 401.31C328.41 418.014 334.743 433.636 343.715 448.04C354.535 465.414 370.81 475.971 389.82 482.621C401.894 486.855 414.321 489.376 427.144 489.799C428.258 489.837 429.366 490.104 431.016 491.261C429.484 492.642 428.046 494.143 426.406 495.38C413.328 505.26 398.337 510.989 382.643 514.983C353.747 522.358 324.24 524.13 294.565 524.109C258.542 524.087 222.728 521.148 187.053 516.342C170.296 514.087 153.546 512.229 136.646 514.959C125.501 516.758 114.901 519.928 105.562 526.527C105.034 526.894 104.474 527.216 103.891 527.487C103.694 527.581 103.393 527.463 102.655 527.401C102.655 526.133 102.467 524.791 102.684 523.515C105.653 505.922 121.966 491.069 140.95 489.636C155.426 488.543 169.979 488.421 184.502 488.036C205.381 487.486 226.268 487.143 247.149 486.569C250.361 486.48 253.562 485.664 256.767 485.128C275.727 481.917 284.682 469.137 288.546 451.685C292.858 432.214 291.191 412.762 288.126 393.308C287.354 388.388 287.349 383.345 286.967 378.018C286.464 377.972 285.958 378.006 285.466 378.119C274.508 381.226 264.21 379.079 254.06 374.591C231.68 364.673 211.184 351.919 193.428 334.991C182.492 324.566 176.355 311.663 176.173 296.625C175.978 280.756 171.056 266.031 167.009 251.041C164.496 241.721 163.683 232.595 170.957 223.976C163.866 223.542 156.972 224.574 151.083 218.767L171.347 215.165C169.156 211.722 166.723 209.361 166.071 206.582C164.518 199.957 163.58 193.158 162.851 186.381C162.488 183.019 165.227 181.115 167.901 179.602C175.733 175.188 184.38 174.156 193.111 173.987C208.26 173.699 223.108 176.163 237.836 179.46C239.452 179.823 241.075 180.159 242.684 180.507C243.924 175.212 240.635 170.573 234.575 169.127C222.052 166.142 209.447 165.58 196.737 168.092C176.057 172.174 156.777 180.181 139.678 192.106C114.098 209.945 91.8631 231.26 79.4939 260.877C65.338 294.771 63.6645 328.954 77.1734 363.508C78.4959 366.894 80.4918 368.614 84.0433 369.426C94.4624 371.808 104.124 369.805 113.451 365.134C114.699 364.507 115.957 363.895 117.335 363.213C119.42 366.078 118.205 368.676 116.558 370.391C113.822 373.239 110.753 376.068 107.279 377.836C103.059 379.98 98.2761 381.027 93.7266 382.518C92.4209 382.946 91.0816 383.268 89.6388 383.669C100.592 401.44 139.034 409.72 159.552 399.062C159.487 398.822 159.49 398.495 159.336 398.385C143.213 386.891 137.387 370.129 135.199 351.477C134.299 343.807 133.9 336.199 137.245 328.932C142.934 316.572 153.399 310.078 165.739 305.938C166.338 305.736 167.105 306.044 167.389 306.073C150.145 325.904 148.231 348.615 156.282 372.113C161.856 388.39 175.555 397.71 191.908 405.159C187.717 390.599 188.936 377.783 196.698 365.814C196.294 374.361 195.662 382.811 199.057 390.897C202.515 399.125 208.447 404.871 216.851 409.244C216.851 407.52 216.793 406.55 216.851 405.589C217.072 402.506 216.904 399.312 217.669 396.365C219.833 388.063 226.347 382.797 233.027 383.481C241.188 384.315 248.361 391.406 249.287 399.47C250.071 406.29 247.813 412.289 244.191 417.827C234.684 432.375 221.362 442.853 206.92 452.048C189.848 462.924 170.731 468.001 151.05 471.5C143.521 472.845 136.064 474.6 128.596 476.255C111.521 480.066 102.443 491.701 98.3819 507.834C96.968 513.451 96.6121 519.337 95.7609 525.098C95.6214 526.039 95.4242 526.974 94.4263 528.011C94.1618 527.305 93.6449 526.589 93.6713 525.893C94.1161 513.268 96.5207 501.158 103.629 490.414C108.452 483.118 114.988 477.732 123.495 475.642C137.471 472.213 151.612 469.456 165.655 466.293C195.592 459.553 220.439 444.394 239.615 420.481C243.128 416.1 245.49 410.351 246.923 404.854C249.227 396.024 242.578 387.211 233.529 385.799C228.917 385.078 225.385 387.115 222.795 390.705C219.111 395.813 218.027 401.543 219.414 407.71C219.72 409.062 220.042 410.409 220.597 412.801C212.208 410.145 206.394 405.452 201.541 399.309C196.566 393.015 194.854 385.523 193.678 377.778C190.117 387.816 191.576 397.604 195.061 407.304C182.134 408.291 157.321 386.37 152.572 368.64C147.267 348.828 149.539 329.381 159.456 311.142C147.354 313.983 136.523 328.243 136.716 342.015C136.867 352.947 138.745 363.691 142.785 373.955C146.197 382.614 151.682 389.716 159.103 395.328C160.73 396.562 162.354 397.806 164.342 399.319C163.323 400.099 162.743 400.837 162.005 401.062C145.262 406.214 128.432 407.676 111.509 401.92C102.837 399.023 95.0944 393.872 89.0761 386.997C87.0851 384.733 85.1543 383.947 82.074 384.089C59.365 385.138 38.6688 379.879 22.2647 363.167C8.01266 348.646 2.04688 330.46 1.10428 310.59C0.0125979 287.776 7.59667 267.234 18.9535 247.885C32.2124 225.311 49.7058 206.193 68.4039 188.089C73.064 183.579 77.5269 178.786 82.615 174.809C97.7639 162.96 105.817 146.87 110.975 128.941C115.709 112.498 119.99 95.9159 125.109 79.5955C131.058 60.6024 139.544 42.7691 154.522 29.0544C168.37 16.3746 184.149 6.70876 202.715 2.44616C221.102 -1.77801 236.826 3.33711 249.972 16.6724C252.062 18.7929 253.949 21.1151 255.943 23.3317C266.299 34.8395 267.047 47.6585 261.023 61.3156C260.045 63.5346 260.107 65.2156 261.264 67.4441C265.816 76.1927 265.52 85.215 261.613 94.0836C259.689 98.4326 256.291 101.487 251.429 102.328C247.594 102.991 244.16 101.934 241.693 98.7808C239.226 95.6277 239.962 92.4049 241.878 89.3527C245.882 82.9864 250.054 76.7234 254.024 70.3379C257.51 64.7305 256.479 62.5212 249.953 61.1955C245.081 60.2085 240.688 61.6182 236.578 64.0989C228.691 68.861 222.805 75.6956 218.53 83.6036C212.867 94.0764 207.608 104.813 202.936 115.759C192.243 140.823 177.293 162.54 155.236 178.985C154.863 179.235 154.546 179.559 154.305 179.938C154.064 180.317 153.905 180.741 153.836 181.185C155.224 180.551 156.619 179.936 157.994 179.278C176.074 170.647 194.712 163.908 215.101 164.521C222.314 164.739 229.543 166.067 236.612 167.6C241.717 168.707 244.629 172.676 245.434 177.883C246.048 181.823 244.473 183.219 240.58 182.316C226.518 179.059 212.357 176.499 197.865 176.312C189.533 176.211 181.239 176.43 173.299 179.448C165.492 182.419 164.07 183.949 165.148 192.044C165.931 197.776 167.475 203.378 169.74 208.703C171.527 212.91 173.015 212.742 176.983 210.353C187.438 204.056 198.721 203.982 210.166 206.453C215.343 207.569 220.405 209.311 225.421 211.047C232.635 213.544 239.849 215.444 247.435 212.663C247.81 212.526 248.344 212.819 250.179 213.186C247.512 214.899 245.891 216.272 244.023 217.086C234.854 221.08 225.169 221.217 215.716 219.125C202.917 216.296 190.692 218.458 178.44 221.644C172.429 223.208 166.723 231.373 167.564 238.863C168.485 247.028 170.45 255.171 172.727 263.103C175.612 273.129 177.868 283.165 178.036 293.64C178.318 311.118 185.284 325.488 198.511 336.9C217.137 352.971 237.663 365.958 260.689 374.788C271.697 379.007 284.406 374.152 290.309 363.917C294.135 357.289 293.452 349.508 287.358 344.969C282.816 341.588 277.127 339.724 271.892 337.308C270.625 336.723 268.934 336.931 267.804 336.209C266.797 335.56 265.64 334.047 265.753 333.065C265.864 332.104 267.388 330.889 268.514 330.572C271.611 329.698 274.963 329.612 277.957 328.526C282.482 326.874 285.618 323.627 286.103 318.548C286.7 312.331 283.112 308.275 276.725 307.521C274.561 307.266 272.472 306.541 270.324 306.161C266.263 305.441 262.197 304.375 258.109 304.255C249.933 304.015 241.758 304.617 233.89 301.507C232.911 301.121 231.459 301.853 230.247 302.151C228.629 302.547 226.96 303.539 225.438 303.33C223.87 303.116 221.533 302.029 221.203 300.854C220.723 299.188 221.266 296.659 222.372 295.331C223.175 294.37 226.441 293.902 227.16 294.632C231.868 299.435 235.513 296.049 239.663 293.796C247.974 289.301 256.791 287.238 266.222 289.988C266.814 280.535 265.876 280.939 272.558 271.47C269.615 269.904 266.787 268.108 263.705 266.907C262.502 266.446 260.701 267.21 259.29 267.733C256.693 268.694 254.24 270.548 251.617 270.834C248.491 271.17 246.086 268.936 245.79 265.733C245.466 262.296 248.366 261.689 250.996 261.17C251.501 261.072 252.093 260.908 252.535 261.072C258.823 263.372 264.318 260.832 270.233 258.997C277.413 256.773 284.887 258.425 292.069 260.625C293.606 261.105 295.31 261.024 297.573 261.273C297.022 259.854 296.958 259.304 296.655 258.963C275.804 235.525 279.895 214.776 290.463 194.008C291.579 191.813 292.694 189.573 294.159 187.613C297.02 183.771 298.744 179.688 299.194 174.838C299.351 172.797 300.11 170.848 301.375 169.237C302.64 167.627 304.354 166.427 306.302 165.789C325.214 159.271 344.374 156.238 363.771 163.628C368.076 165.268 372.007 167.878 376.66 170.332C375.982 168.868 375.537 167.732 374.95 166.675C367.895 153.947 363.168 140.47 361.177 126.023C359.044 110.531 353.646 96.3794 343.025 84.6098C324.894 64.512 299.547 63.3016 279.594 81.6032C276.17 84.7443 273.241 88.4257 270.079 91.855C269.262 92.7411 268.43 93.6129 266.91 95.2291C266.472 93.0221 266.107 91.8406 266.018 90.6375C264.9 75.4458 266.58 60.5664 271.774 46.2296C278.062 28.8671 294.716 17.1071 313.167 16.4227C336.588 15.5509 355.069 25.5626 370.418 42.3224C385.766 59.0823 395.688 78.9664 403.842 99.8639C410.007 115.682 415.581 131.741 422.03 147.442C431.316 170.054 445.943 189.244 462.235 207.204C476.393 222.814 488.522 239.624 495.658 259.679C503.969 283.05 505.39 306.781 499.4 330.865C494.124 352.087 480.702 366.914 461.984 377.355C457.81 379.685 453.314 381.452 448.928 383.39C447.824 383.87 446.569 384.022 445.383 384.324L444.592 383.385ZM376.403 232.259C375.948 239.787 376.622 247.796 374.797 255.188C370.148 274.018 365.019 292.785 358.806 311.142C355.483 320.959 350.207 330.323 344.619 339.129C333.024 357.38 314.778 367.123 295.387 374.911C291.403 376.51 289.258 378.959 289.376 382.927C289.506 387.561 290.184 392.196 290.843 396.8C293.596 416.038 294.784 435.269 290.023 454.368C286.067 470.217 277.87 482.525 260.773 486.322C253.956 487.835 246.969 489.184 240.022 489.403C220.956 490.003 201.868 489.823 182.793 490.224C168.661 490.519 154.481 490.642 140.421 491.924C123.57 493.459 112.574 503.451 106.17 518.756C105.615 520.086 105.449 521.58 105.047 523.22C111.059 520.672 116.368 517.937 121.985 516.121C139.123 510.586 156.748 510.327 174.405 512.646C208.017 517.06 241.691 520.571 275.607 521.453C307.995 522.295 340.267 521.477 372.144 514.993C389.666 511.427 406.604 506.186 421.662 496.117C423.182 495.101 424.547 493.86 426.183 492.573C417.812 491.165 409.949 490.296 402.312 488.473C377.415 482.532 355.685 471.269 341.717 448.849C331.988 433.223 324.906 416.276 322.374 397.921C321.412 390.996 322.165 383.734 322.927 376.712C323.432 372.07 326.383 370.624 331.083 371.287C335.092 371.849 338.381 374.603 338.651 378.991C338.906 383.157 338.09 387.413 337.497 391.594C337.225 393.515 336.352 395.349 335.453 398.162C346.754 393.287 355.1 386.719 360.655 376.813C366.145 367.022 366.7 356.321 366.667 345.298C368.099 348.551 368.954 352.028 369.194 355.574C370.281 372.216 366.861 387.513 355.247 400.601C359.131 399.754 362.829 398.757 366.2 397.1C384.186 388.258 393.721 372.845 398.874 354.246C404.007 335.719 403.796 316.814 402.283 297.855C402.182 296.577 402.283 295.283 402.283 293.996L403.543 293.883C407.035 302.627 407.98 311.978 408.665 321.243C410.521 346.331 407.249 370.146 389.241 389.86C389.914 390.013 390.176 390.16 390.385 390.1C391.014 389.938 391.631 389.735 392.232 389.492C406.054 383.969 419.01 376.887 430.609 367.533C448.016 353.502 460.246 336.396 462.109 313.313C462.174 312.497 462.624 311.711 462.893 310.912L463.855 310.842C464.218 312.48 464.788 314.103 464.913 315.76C466.596 338.034 465.851 359.834 451.702 379.36C452.765 379.236 453.297 379.296 453.71 379.106C472.173 370.648 487.081 358.362 494.48 338.937C501.716 319.951 502.617 300.23 498.979 280.319C494.377 255.138 483.017 233.174 465.63 214.589C439.482 186.677 419.827 155.105 408.252 118.557C402.682 100.978 395.726 83.9302 386.48 67.898C377.843 52.9201 367.585 39.3326 352.948 29.6067C350.241 27.8056 347.298 26.3575 344.463 24.7461C365.354 40.7039 377.646 62.6412 387.921 85.7433C396.923 105.988 405.38 126.523 412.965 147.336C426.601 184.746 445.198 219.43 467.844 252.081C472.089 258.13 475.988 264.414 479.524 270.903C488.613 287.812 490.104 305.391 483.08 323.45C482.447 325.073 481.474 326.572 480.658 328.118L479.391 327.683C479.391 326.327 479.444 324.967 479.391 323.615C479.112 317.665 479.295 311.642 478.429 305.78C473.755 274.741 463.131 246.531 442.31 222.06C416.495 191.772 395.859 157.438 381.234 120.442C375.463 105.865 369.451 91.3627 362.937 77.1004C357.267 64.668 350.073 53.0666 340.06 43.516C323.624 27.8368 301.505 27.6663 284.754 43.0909C275.975 51.1766 271.558 61.5822 269.605 73.0948C268.745 78.2099 268.552 83.4379 268.057 88.6154L269.454 89.1534C272.957 85.5968 276.232 81.7713 280.008 78.5269C299.151 62.0673 322.848 62.5139 341.24 79.7564C353.456 91.2066 360.338 105.745 362.641 122.022C365.318 141.037 371.94 158.313 381.981 174.513C389.087 185.976 396.517 197.375 399.973 210.593C407.232 238.361 403.474 265.137 391.441 290.862C386.872 300.629 380.139 308.854 370.908 314.773C369.723 315.534 368.321 315.974 367.02 316.545L365.936 315.739C374.722 303.491 377.401 289.486 378.199 275.089C379.026 260.637 379.692 246.127 376.403 232.259ZM83.6346 382.146C83.7692 381.768 83.9023 381.391 84.0337 381.015C80.2994 376.212 78.5464 370.506 72.5494 366.686C52.4206 353.862 43.1653 334.28 42.0809 310.972C41.0902 289.642 49.2321 271.107 62.4141 254.777C75.7643 238.241 91.7164 224.296 108.385 211.249C122.978 199.846 138.159 189.16 152.94 177.971C170.354 164.778 184.68 148.914 194.116 129.001C199.055 118.576 203.571 107.952 208.474 97.5104C214.295 85.1141 220.999 73.2845 232.067 64.632C237.357 60.4991 243.239 57.8479 250.102 59.1087C252.805 59.6034 255.339 61.0298 258.297 62.1609C263.238 51.155 265.207 40.2308 257.852 29.6379C254.499 24.8656 250.683 20.4351 246.459 16.4107C233.597 4.04074 218.123 0.0350953 201.144 5.08057C167.802 14.9866 143.451 35.5335 131.464 68.6401C125.037 86.3965 120.05 104.71 115.113 122.961C109.15 145.014 99.9353 164.859 81.1506 179.074C79.4001 180.399 77.8924 182.042 76.2861 183.555C57.6362 201.107 39.8927 219.471 25.7898 240.995C13.5456 259.684 4.49475 279.594 3.33574 302.341C2.46287 319.487 5.95434 335.702 15.0365 350.348C28.4733 372.017 49.1287 380.847 73.7373 382.122C77.0267 382.295 80.3355 382.146 83.6346 382.146ZM372.854 309.982C378.757 306.003 383.213 300.667 386.711 294.596C399.696 272.046 403.284 247.638 400.28 222.132C398.357 205.857 390.263 192.025 381.789 178.437C381.304 177.692 380.573 177.14 379.723 176.876C362.538 172.513 345.206 169.261 327.373 171.608C312.999 173.5 300.403 178.524 293.709 192.704C291.439 197.507 289.14 202.31 287.262 207.267C280.686 224.673 284.391 240.381 295.714 254.607C297.193 256.463 299.434 257.712 301.37 259.283L298.162 263.084C298.607 263.665 299.062 264.021 299.194 264.47C299.706 266.216 301.036 268.699 300.348 269.587C299.35 270.879 296.878 271.508 295.022 271.54C292.887 271.573 290.763 270.464 288.592 270.178C283.319 269.477 278.608 270.98 274.987 273.187L280.998 289.812C289.212 286.016 297.763 288.119 306.247 290.802C311.07 292.324 315.884 293.9 320.607 295.696C323.011 296.613 324.394 296.176 326.332 294.341C327.941 292.807 330.773 292.291 333.154 291.964C334.101 291.837 335.876 293.254 336.198 294.298C336.52 295.343 335.885 297.62 335.061 297.987C332.591 299.082 329.838 299.577 327.166 300.167C325.846 300.46 324.211 300.023 323.144 300.648C317.524 303.928 311.445 304.903 305.128 304.372C300.617 303.993 296.154 303.064 291.663 302.451C287.438 301.87 283.487 302.567 279.717 305.278C280.342 305.758 280.678 306.118 281.104 306.346C289.852 311.111 291.182 321.761 283.268 327.681C280.017 330.111 275.54 330.93 271.582 332.378C270.512 332.767 269.3 332.77 268.153 332.952L268.131 334.038C269.187 334.309 270.296 334.451 271.289 334.871C276.624 337.119 282.436 338.694 287.142 341.888C295.888 347.824 297.289 358.487 290.951 366.83C288.804 369.656 285.721 371.779 283.016 374.178C282.227 374.877 281.292 375.412 279.89 376.395C281.042 376.469 281.434 376.584 281.782 376.503C303.113 371.44 322.112 361.907 336.919 345.572C350.664 330.407 357.512 311.584 362.829 292.166C365.318 283.069 367.749 273.955 370.451 264.921C375.364 248.572 375.604 232.54 368.184 216.777C366.02 212.163 363.235 208.914 357.883 207.872C354.374 207.19 351.094 205.348 347.697 204.068C346.846 203.746 345.937 203.588 344.79 203.283C346.824 210.117 345.934 213.849 341.801 217.017C336.871 220.787 329.735 221.219 324.185 217.893C317.709 214.013 316.985 208.451 320.556 201.547C312.381 204.354 308.146 210.711 303.022 216.452C302.632 215.429 302.353 215.064 302.402 214.75C302.51 213.981 302.709 213.227 302.993 212.504C306.509 203.778 312.304 197.176 321.369 194.116C335.445 189.369 348.897 191.753 361.393 199.107C369.518 203.888 377.966 206.311 387.329 205.795C388.409 205.735 389.493 205.888 390.59 205.944C390.631 206.309 390.674 206.664 390.715 207.041C384.67 211.798 377.307 211.241 369.718 211.044C370.115 212.005 370.216 212.507 370.492 212.882C376.198 220.638 379.115 229.504 379.87 238.921C381.765 262.911 382.292 286.842 372.854 309.982ZM446.059 223.741L446.804 223.275C446.381 222.396 446.066 221.448 445.523 220.653C433.077 202.402 424.663 182.188 416.444 161.853C405.52 134.817 394.872 107.657 383.217 80.9356C375.631 63.5346 365.729 47.2935 351.407 34.3304C338.439 22.592 323.466 16.7036 305.696 19.6022C288.2 22.4576 271.791 40.7111 271.07 58.6884C272.753 55.7466 274.126 53.1458 275.682 50.6555C285.856 34.364 306.461 25.7572 323.406 30.8411C334.604 34.2031 342.659 41.8542 349.565 50.8284C361.809 66.7333 369.915 84.8668 376.881 103.468C390.325 139.385 407.439 173.269 430.79 203.85C435.862 210.487 440.952 217.118 446.059 223.741ZM75.091 365.833C55.6403 308.292 67.709 258.416 107.952 214.584C102.686 218.667 97.5764 222.816 92.7047 227.235C78.96 239.706 64.9341 252.004 55.674 268.432C40.2846 295.713 39.4142 322.868 57.3572 349.481C61.7817 356.061 67.3363 361.635 75.091 365.833ZM321.229 299.584C321.229 299.036 321.229 298.486 321.229 297.936C314.126 295.698 307.088 293.225 299.908 291.28C291.076 288.878 282.665 289.118 275.816 296.563C275.29 297.134 272.878 296.803 271.998 296.083C266.602 291.693 260.516 290.177 253.762 291.244C247.06 292.3 240.952 294.771 234.643 299.627C237.644 300.381 239.582 301.152 241.568 301.308C246.218 301.678 250.917 301.505 255.548 302.007C261.175 302.615 266.737 303.786 272.356 304.5C273.979 304.706 276.066 304.723 277.305 303.887C282.994 300.045 289.056 299.745 295.58 300.734C300.928 301.546 306.386 302.053 311.782 301.964C314.944 301.911 318.082 300.427 321.229 299.584ZM157.669 220.453C165.22 222.78 171.469 221.239 177.716 219.601C190.336 216.296 202.955 214.109 216.082 217.041C222.976 218.58 230.139 218.835 237.256 216.818C232.207 215.242 227.467 213.571 222.617 212.291C215.884 210.509 209.128 208.47 202.248 207.545C193.327 206.345 184.512 207.711 177.041 213.153C172.371 216.553 167.333 218.463 161.786 219.447C160.728 219.632 159.696 219.954 157.669 220.453ZM373.984 172.924L374.486 171.836C371.045 169.915 367.753 167.592 364.147 166.108C344.951 158.263 325.94 161.356 307.158 167.789C302.515 169.381 301.009 173.637 300.983 178.999C324.505 163.945 349.226 168.188 373.984 172.924ZM258.477 67.4994C257.313 69.3245 256.45 70.6861 255.577 72.0405C251.65 78.1355 247.51 84.1055 243.927 90.3925C242.888 92.2176 242.453 95.7358 243.513 97.071C244.925 98.8457 248.041 99.9647 250.487 100.066C254.194 100.219 257.077 97.8226 258.85 94.5783C263.072 86.8552 263.346 78.7934 260.437 70.578C260.112 69.6871 259.393 68.9258 258.477 67.509V67.4994ZM331.36 199.642C330.49 199.798 329.049 199.899 327.712 200.324C323.144 201.782 320.477 205.053 320.58 208.895C320.679 212.613 323.682 215.955 328.083 217.235C328.7 217.429 329.329 217.583 329.965 217.696C334.775 218.455 339.343 217.502 342.048 213.441C343.368 211.462 343.703 207.807 342.803 205.591C340.978 201.095 336.576 199.779 331.36 199.642ZM467.445 256.823C475.015 276.196 480.598 296.054 482.036 316.922C489.705 302.269 481.582 269.049 467.443 256.823H467.445ZM311.424 203.609C326.916 195.204 332.497 195.019 349.152 202.267C352.933 203.957 356.818 205.405 360.783 206.604C366.95 208.403 373.234 209.726 379.755 208.468C379.34 207.997 378.773 207.685 378.153 207.586C371.18 206.772 365.132 203.732 359.131 200.235C350.032 194.933 340.026 193.017 329.554 194.306C322.463 195.183 316.064 197.786 311.424 203.609ZM81.1939 372.122C82.841 374.699 84.5218 377.545 86.4599 380.206C86.9409 380.847 88.3043 381.25 89.1675 381.121C97.4417 379.889 105.411 377.725 112.035 372.291C113.495 371.09 114.502 369.354 116.219 367.247C109.715 369.075 104.381 371.205 98.8628 371.95C93.2072 372.716 87.3713 372.122 81.1939 372.122ZM264.534 264.15C272.558 271.319 283.937 270.994 291.706 263.382C284.345 259.064 269.877 259.472 264.534 264.15ZM271.527 275.886C270.51 278.833 269.31 281.458 268.728 284.215C268.047 287.43 268.781 290.442 271.822 292.379C274.227 293.919 276.002 293.261 277.016 290.619C278.678 286.285 276.403 279.416 271.527 275.886ZM258.799 265.98L258.39 264.016C256.029 263.797 253.653 263.327 251.314 263.466C250.198 263.533 249.15 264.758 248.07 265.459C249.164 266.557 250.402 268.687 251.326 268.559C253.887 268.202 256.318 266.905 258.799 265.98ZM290.328 267.45L290.357 268.461C292.221 268.831 294.074 269.369 295.955 269.494C296.801 269.551 297.701 268.773 298.578 268.387C298.153 267.51 297.948 266.369 297.265 265.807C294.173 263.255 292.608 266.727 290.328 267.448V267.45ZM229.381 300.765C229.508 299.92 229.637 299.075 229.769 298.229L223.875 296.762C223.699 297.997 223.524 299.229 223.351 300.46L229.381 300.765ZM334.39 294.584C330.764 293.513 328.205 293.688 327.077 297.675C330.365 298.679 332.803 298.342 334.39 294.584Z" fill="#2B2F30" stroke="#2B2F30" stroke-miterlimit="10"/>
</svg>
