<svg width="63" height="63" viewBox="0 0 63 63" fill="none" xmlns="http://www.w3.org/2000/svg">
<path d="M62.8279 18.5222C62.6803 15.1748 62.139 12.8734 61.3635 10.8793C60.5636 8.76258 59.3329 6.86747 57.7204 5.29207C56.145 3.69214 54.2374 2.44893 52.1452 1.66146C50.1395 0.886017 47.8502 0.344696 44.5028 0.197106C41.1303 0.0370175 40.0597 0 31.5062 0C22.9528 0 21.8822 0.0370175 18.5222 0.184607C15.1748 0.332196 12.8734 0.873998 10.8798 1.64896C8.76258 2.44893 6.86747 3.67964 5.29206 5.29207C3.69214 6.86747 2.44941 8.77508 1.66146 10.8673C0.886017 12.8734 0.344696 15.1623 0.197106 18.5097C0.0370175 21.8822 0 22.9528 0 31.5063C0 40.0597 0.0370175 41.1303 0.184607 44.4903C0.332196 47.8377 0.873998 50.1391 1.64944 52.1332C2.44941 54.2499 3.69214 56.145 5.29206 57.7204C6.86747 59.3204 8.77508 60.5636 10.8673 61.351C12.8734 62.1265 15.1623 62.6678 18.5102 62.8154C21.8697 62.9635 22.9408 63 31.4942 63C40.0477 63 41.1183 62.9635 44.4782 62.8154C47.8257 62.6678 50.127 62.1265 52.1207 61.351C56.3546 59.7141 59.7021 56.3667 61.339 52.1332C62.114 50.127 62.6558 47.8377 62.8034 44.4903C62.951 41.1303 62.988 40.0597 62.988 31.5063C62.988 22.9528 62.9755 21.8822 62.8279 18.5222ZM57.1546 44.2441C57.019 47.3209 56.5022 48.9824 56.0715 50.09C55.0129 52.8346 52.8346 55.0129 50.09 56.0715C48.9824 56.5022 47.3089 57.019 44.2441 57.1541C40.9212 57.3022 39.9246 57.3387 31.5187 57.3387C23.1129 57.3387 22.1038 57.3022 18.7929 57.1541C15.7161 57.019 14.0546 56.5022 12.947 56.0715C11.5812 55.5667 10.338 54.7667 9.3289 53.7206C8.28279 52.699 7.48283 51.4683 6.97805 50.1025C6.5473 48.9949 6.03049 47.3209 5.8954 44.2566C5.74733 40.9337 5.7108 39.9366 5.7108 31.5308C5.7108 23.1249 5.74733 22.1158 5.8954 18.8054C6.03049 15.7286 6.5473 14.0671 6.97805 12.9595C7.48283 11.5932 8.28279 10.3505 9.3414 9.34092C10.3625 8.29481 11.5932 7.49485 12.9595 6.99055C14.0671 6.5598 15.7411 6.04299 18.8054 5.90742C22.1283 5.75983 23.1254 5.72282 31.5308 5.72282C39.9491 5.72282 40.9457 5.75983 44.2566 5.90742C47.3334 6.04299 48.9949 6.5598 50.1025 6.99055C51.4683 7.49485 52.7115 8.29481 53.7206 9.34092C54.7667 10.3625 55.5667 11.5932 56.0715 12.9595C56.5022 14.0671 57.019 15.7406 57.1546 18.8054C57.3022 22.1283 57.3392 23.1249 57.3392 31.5308C57.3392 39.9366 57.3022 40.9212 57.1546 44.2441Z" fill="white"/>
<path d="M31.5061 15.3223C22.5715 15.3223 15.3223 22.571 15.3223 31.5061C15.3223 40.4413 22.5715 47.69 31.5061 47.69C40.4413 47.69 47.69 40.4413 47.69 31.5061C47.69 22.571 40.4413 15.3223 31.5061 15.3223ZM31.5061 42.0042C25.7098 42.0042 21.0081 37.303 21.0081 31.5061C21.0081 25.7093 25.7098 21.0081 31.5061 21.0081C37.303 21.0081 42.0042 25.7093 42.0042 31.5061C42.0042 37.303 37.303 42.0042 31.5061 42.0042V42.0042Z" fill="white"/>
<path d="M52.1076 14.6825C52.1076 16.7689 50.4159 18.4607 48.329 18.4607C46.2425 18.4607 44.5508 16.7689 44.5508 14.6825C44.5508 12.5956 46.2425 10.9043 48.329 10.9043C50.4159 10.9043 52.1076 12.5956 52.1076 14.6825V14.6825Z" fill="white"/>
</svg>
