<svg width="61" height="61" viewBox="0 0 61 61" fill="none" xmlns="http://www.w3.org/2000/svg">
<path d="M17.9902 21.5645H10.8418C9.8547 21.5645 9.05469 22.3645 9.05469 23.3516V51.9453C9.05469 52.9324 9.8547 53.7324 10.8418 53.7324H17.9902C18.9773 53.7324 19.7773 52.9324 19.7773 51.9453V23.3516C19.7773 22.3645 18.9773 21.5645 17.9902 21.5645ZM16.2031 50.1582H12.6289V25.1387H16.2031V50.1582Z" fill="white"/>
<path d="M14.416 7.26758C11.4598 7.26758 9.05469 9.67273 9.05469 12.6289C9.05469 15.5851 11.4598 17.9902 14.416 17.9902C17.3722 17.9902 19.7773 15.5851 19.7773 12.6289C19.7773 9.67273 17.3722 7.26758 14.416 7.26758ZM14.416 14.416C13.4308 14.416 12.6289 13.6141 12.6289 12.6289C12.6289 11.6437 13.4308 10.8418 14.416 10.8418C15.4013 10.8418 16.2031 11.6437 16.2031 12.6289C16.2031 13.6141 15.4013 14.416 14.416 14.416Z" fill="white"/>
<path d="M42.3712 21.6748C39.4514 21.201 36.4626 21.7567 34.0626 23.145C33.9597 22.2551 33.2039 21.5645 32.2871 21.5645H25.1387C24.1516 21.5645 23.3516 22.3645 23.3516 23.3516V51.9454C23.3516 52.9325 24.1516 53.7325 25.1387 53.7325H32.2871C33.2742 53.7325 34.0742 52.9325 34.0742 51.9454V35.8614C34.0742 33.8904 35.6775 32.2872 37.6484 32.2872C39.6194 32.2872 41.2227 33.8904 41.2227 35.8614V51.9454C41.2227 52.9325 42.0227 53.7325 43.0098 53.7325H50.1582C51.1453 53.7325 51.9453 52.9325 51.9453 51.9454V32.7088C51.9453 27.3717 48.1733 22.6163 42.3712 21.6748ZM48.3711 50.1582H44.7969V35.8614C44.7969 31.9195 41.5903 28.7129 37.6484 28.7129C33.7066 28.7129 30.5 31.9195 30.5 35.8614V50.1582H26.9258V25.1387H30.5V26.9258C30.5 27.6486 30.9356 28.3001 31.6034 28.577C32.2708 28.8535 33.0396 28.7004 33.5507 28.1894L34.3842 27.3559C36.1387 25.6018 39.0493 24.7566 41.7988 25.2029C46.0055 25.8857 48.3711 29.2472 48.3711 32.7088V50.1582Z" fill="white"/>
<path d="M51.9453 0H9.05469C4.11221 0 0 4.11547 0 9.05469V51.9453C0 56.8878 4.11547 61 9.05469 61H51.9453C56.8878 61 61 56.8845 61 51.9453V9.05469C61 4.11221 56.8845 0 51.9453 0ZM57.4258 51.9453C57.4258 54.9159 54.9159 57.4258 51.9453 57.4258H9.05469C6.08408 57.4258 3.57422 54.9159 3.57422 51.9453V9.05469C3.57422 6.08408 6.08408 3.57422 9.05469 3.57422H51.9453C54.9159 3.57422 57.4258 6.08408 57.4258 9.05469V51.9453Z" fill="white"/>
</svg>
