<svg width="100" height="101" viewBox="0 0 100 101" fill="none" xmlns="http://www.w3.org/2000/svg">
<rect x="1" y="1" width="98" height="98.2193" stroke="white" stroke-width="2"/>
<path d="M50.2197 0L50.2197 20.3947" stroke="white" stroke-width="2"/>
<path d="M52.3033 22.917C52.6323 21.2723 51.382 20.1758 50.1103 20.1758C48.8386 20.1758 47.5884 21.4916 48.027 23.0267" stroke="white" stroke-width="2"/>
<path d="M60.3063 24.5608C59.7581 23.245 53.3984 22.7699 49.5607 22.9161C44.6265 23.104 42.8721 23.1354 40.1309 24.2319C39.6037 24.4427 39.5826 31.5005 40.1309 31.359C48.2888 29.2539 56.9803 32.5652 60.3063 34.6485C60.3063 31.7977 60.9609 26.1321 60.3063 24.5608Z" stroke="white" stroke-width="2"/>
<path d="M40.0225 31.1402C40.0225 31.7981 41.7549 33.2235 42.5444 33.2235M42.3251 30.9209C42.2154 33.4428 42.3256 38.4713 42.5444 38.4867C48.7944 38.9253 55.7023 37.8288 57.7856 35.5262" stroke="white" stroke-width="2"/>
<path d="M42.5439 38.2678C43.2018 35.9651 50.1097 34.3204 57.5659 35.4169V33.1143M60.5264 35.5265C60.0878 36.0748 58.2238 36.2941 57.2369 36.0748" stroke="white" stroke-width="2"/>
<path d="M14.2539 74.8898C20.0653 82.6749 34.3197 81.3591 42.6531 81.2494C59.3197 79.9337 66.7759 67.5433 58.9908 63.9249C48.5825 59.0872 42.6531 73.7005 40.6794 72.2582C37.8285 70.1749 33.0039 51.4249 29.9337 49.1223C27.7619 47.4934 11.5127 44.9556 11.5127 49.6705C11.5127 55.2626 11.7849 71.5822 14.2539 74.8898Z" stroke="white" stroke-width="2"/>
<path d="M13.4873 73.1357C14.4376 69.8462 17.8075 64.6269 23.6847 70.0655C24.606 70.918 25.5204 71.743 26.4259 72.5323M26.4259 72.5323C32.7413 78.0374 38.5997 81.5784 43.4215 81.14C50.6584 80.4821 52.632 73.9032 49.5619 72.9164C44.801 71.3861 31.9084 73.355 26.4259 72.5323Z" stroke="white" stroke-width="2"/>
<path d="M19.7358 79.2759L13.7051 99.232H16.3367L23.4638 80.482M31.7972 81.4689L29.7138 99.1224H32.5647L35.8542 81.4689M46.1612 80.9206C46.2489 81.3592 50.8396 93.0917 53.3981 99.1224H56.7972L49.9989 80.1531" stroke="white" stroke-width="2"/>
<path d="M67.4338 84.7587H64.5829V74.4517H87.9382V84.7587H84.7584M67.4338 84.7587L63.0479 99.0131M67.4338 84.7587H71.6005M71.6005 84.7587L66.0084 99.342M71.6005 84.7587H80.9207M80.9207 84.7587L86.4031 99.342M80.9207 84.7587H84.7584M84.7584 84.7587L89.4733 98.7938" stroke="white" stroke-width="2"/>
<circle cx="76.3154" cy="78.0702" r="1" stroke="white" stroke-width="1.07018"/>
</svg>
