<svg width="66" height="67" viewBox="0 0 66 67" fill="none" xmlns="http://www.w3.org/2000/svg">
<rect x="0.75" y="0.75" width="64.4101" height="64.5547" stroke="#2B2F30" stroke-width="1.5"/>
<path d="M33.0996 0L33.0996 13.4422" stroke="#2B2F30" stroke-width="1.5"/>
<path d="M34.4732 15.1044C34.69 14.0204 33.866 13.2977 33.0278 13.2977C32.1896 13.2977 31.3656 14.1649 31.6547 15.1767" stroke="#2B2F30" stroke-width="1.5"/>
<path d="M39.7481 16.1885C39.3867 15.3212 35.1951 15.0081 32.6656 15.1044C29.4135 15.2283 28.2572 15.249 26.4504 15.9717C26.1029 16.1106 26.089 20.7624 26.4504 20.6692C31.8273 19.2817 37.5559 21.4642 39.7481 22.8373C39.7481 20.9583 40.1795 17.2241 39.7481 16.1885Z" stroke="#2B2F30" stroke-width="1.5"/>
<path d="M26.3789 20.5247C26.3789 20.9583 27.5208 21.8978 28.0411 21.8978M27.8966 20.3801C27.8243 22.0423 27.8969 25.3566 28.0411 25.3668C32.1605 25.6558 36.7135 24.9331 38.0866 23.4155" stroke="#2B2F30" stroke-width="1.5"/>
<path d="M28.041 25.2222C28.4746 23.7045 33.0276 22.6205 37.942 23.3432V21.8255M39.8933 23.4154C39.6042 23.7768 38.3756 23.9213 37.7252 23.7768" stroke="#2B2F30" stroke-width="1.5"/>
<path d="M9.39463 49.3603C13.2249 54.4915 22.62 53.6242 28.1126 53.552C39.0976 52.6847 44.0119 44.5183 38.8808 42.1333C32.0207 38.9448 28.1126 48.5765 26.8117 47.6258C24.9327 46.2527 21.7528 33.8946 19.7292 32.3769C18.2978 31.3033 7.5879 29.6306 7.58789 32.7382C7.58788 36.424 7.76727 47.1803 9.39463 49.3603Z" stroke="#2B2F30" stroke-width="1.5"/>
<path d="M8.88965 48.204C9.51599 46.0359 11.7371 42.5959 15.6107 46.1805C16.218 46.7424 16.8206 47.2861 17.4175 47.8064M17.4175 47.8064C21.58 51.4348 25.4413 53.7686 28.6193 53.4797C33.3891 53.0461 34.69 48.7099 32.6664 48.0595C29.5285 47.0509 21.031 48.3486 17.4175 47.8064Z" stroke="#2B2F30" stroke-width="1.5"/>
<path d="M13.008 52.2511L9.0332 65.4043H10.7677L15.4652 53.0461M20.9577 53.6965L19.5846 65.332H21.4636L23.6317 53.6965M30.4251 53.3352C30.4829 53.6243 33.5086 61.3571 35.1949 65.332H37.4353L32.9545 52.8293" stroke="#2B2F30" stroke-width="1.5"/>
<path d="M44.4455 55.8646H42.5665V49.0713H57.96V55.8646H55.8641M44.4455 55.8646L41.5547 65.2597M44.4455 55.8646H47.1917M47.1917 55.8646L43.506 65.4765M47.1917 55.8646H53.3347M53.3347 55.8646L56.9482 65.4765M53.3347 55.8646H55.8641M55.8641 55.8646L58.9717 65.1152" stroke="#2B2F30" stroke-width="1.5"/>
<circle cx="50.2999" cy="51.4562" r="0.75" stroke="#2B2F30" stroke-width="0.523557"/>
</svg>
