<svg width="53" height="53" viewBox="0 0 53 53" fill="none" xmlns="http://www.w3.org/2000/svg">
<path d="M51.3503 6.44891L46.5476 1.64578C44.3531 -0.548646 40.7829 -0.548542 38.5884 1.64578C36.5224 3.71206 4.96501 35.2718 2.85609 37.3808C2.63146 37.6055 2.48095 37.904 2.42733 38.196L0.0259736 51.1645C-0.0670869 51.6672 0.0931552 52.1837 0.454735 52.5452C0.816729 52.9072 1.33327 53.0672 1.83543 52.9741L14.8027 50.5724C15.1024 50.5165 15.397 50.3646 15.6179 50.1436L51.3503 14.4085C53.5498 12.209 53.5501 8.64872 51.3503 6.44891ZM3.49064 49.509L4.94328 41.6642L11.335 48.0563L3.49064 49.509ZM14.52 46.8496L6.14985 38.4789L36.7087 7.91769L45.0789 16.2885L14.52 46.8496ZM49.1544 12.2127L47.2746 14.0926L38.9045 5.72181L40.7842 3.84187C41.7677 2.85826 43.368 2.85816 44.3517 3.84187L49.1544 8.64499C50.1404 9.63098 50.1404 11.2266 49.1544 12.2127Z" fill="#2B2F30"/>
</svg>
