<svg width="84" height="64" viewBox="0 0 84 64" fill="none" xmlns="http://www.w3.org/2000/svg">
<path d="M54.9286 28.0535L36.3711 17.8995C35.304 17.3157 34.0428 17.3375 32.9969 17.9572C31.9504 18.5776 31.3262 19.6735 31.3262 20.8898V41.0234C31.3262 42.234 31.9465 43.3279 32.986 43.9489C33.5288 44.2732 34.1306 44.436 34.7337 44.436C35.2861 44.436 35.8398 44.2995 36.3493 44.0252L54.9075 34.0462C56.0091 33.4534 56.6968 32.3082 56.7019 31.0566C56.7064 29.805 56.0271 28.6546 54.9286 28.0535V28.0535ZM36.2487 38.4907V23.4431L50.1183 31.0322L36.2487 38.4907Z" fill="white"/>
<path d="M83.3819 15.0162L83.378 14.9778C83.3069 14.3016 82.5987 8.28772 79.6751 5.22885C76.2958 1.63101 72.4647 1.19394 70.6222 0.984375C70.4697 0.967071 70.33 0.95105 70.205 0.934387L70.0583 0.919006C58.9533 0.111511 42.1825 0.00128174 42.0146 0.000640869L41.9998 0L41.9851 0.000640869C41.8172 0.00128174 25.0463 0.111511 13.8414 0.919006L13.6934 0.934387C13.5742 0.950409 13.4428 0.965149 13.2999 0.981812C11.4786 1.19202 7.68848 1.62973 4.29957 5.35767C1.51501 8.38385 0.71008 14.269 0.627408 14.9303L0.617795 15.0162C0.592802 15.2975 0 21.9953 0 28.7193V35.0049C0 41.7289 0.592802 48.4266 0.617795 48.7086L0.622282 48.7509C0.693418 49.4161 1.40093 55.3198 4.31111 58.38C7.48853 61.8573 11.5061 62.3175 13.6671 62.5648C14.0087 62.6039 14.3029 62.6373 14.5035 62.6725L14.6976 62.6994C21.1095 63.3095 41.2129 63.6101 42.0652 63.6223L42.0908 63.6229L42.1165 63.6223C42.2844 63.6216 59.0546 63.5114 70.1595 62.7039L70.3063 62.6885C70.4466 62.67 70.6043 62.6533 70.7773 62.6353C72.5884 62.4431 76.358 62.0438 79.7001 58.3665C82.4847 55.3397 83.2902 49.4546 83.3723 48.7939L83.3819 48.708C83.4069 48.426 84.0003 41.7289 84.0003 35.0049V28.7193C83.9997 21.9953 83.4069 15.2982 83.3819 15.0162V15.0162ZM79.0772 35.0049C79.0772 41.2284 78.5337 47.6377 78.4825 48.226C78.2735 49.8468 77.4244 53.5703 76.0677 55.0449C73.9759 57.3463 71.8271 57.5744 70.2582 57.7404C70.0685 57.7603 69.8929 57.7795 69.734 57.7993C58.9931 58.5761 42.8554 58.6953 42.112 58.6998C41.2782 58.6876 21.469 58.3845 15.2526 57.807C14.9341 57.7551 14.59 57.7154 14.2272 57.6744C12.3873 57.4635 9.86871 57.1751 7.93201 55.0449L7.8865 54.9962C6.5535 53.6074 5.72871 50.1256 5.51914 48.2453C5.48005 47.8005 4.9225 41.3156 4.9225 35.0049V28.7193C4.9225 22.5028 5.46467 16.1006 5.51722 15.5001C5.76652 13.5909 6.63169 10.093 7.93201 8.67929C10.0879 6.30807 12.361 6.04532 13.8645 5.87164C14.0081 5.85498 14.142 5.8396 14.2657 5.82358C25.163 5.043 41.4166 4.927 41.9998 4.92252C42.583 4.92636 58.8309 5.043 69.6314 5.82358C69.7641 5.84024 69.9089 5.8569 70.0647 5.87485C71.6111 6.05109 73.9483 6.31769 76.0933 8.60559L76.1132 8.62674C77.4462 10.0155 78.271 13.5582 78.4805 15.4763C78.5177 15.8961 79.0772 22.3952 79.0772 28.7193V35.0049Z" fill="white"/>
</svg>
